<svg width="286" height="160" fill="none" xmlns="http://www.w3.org/2000/svg"><g clip-path="url(#a)"><mask id="c" style="mask-type:alpha" maskUnits="userSpaceOnUse" x="0" y="17" width="285" height="125"><path fill="url(#b)" d="M0 17.052h284.938V141.11H0z"/></mask><g mask="url(#c)"><path d="m249.225 33.345-16.105-5.38-66.327.208-11.481-4.125-9.715 4.036-41.512-.114-16.449-7.542H63.72l-3.7 7.54H39.176L0 90.352l43.608 49.223h197.815l43.608-49.223-35.808-57.01.002.003Zm-8.807 103.999H44.614L2.783 90.124 40.413 30.2h21.003l3.697-7.54H87.15l16.444 7.54 42.447.116 9.329-3.877 11.037 3.966 66.353-.207 14.998 5.009 34.492 54.914-41.831 47.219v.005Z" fill="url(#d)"/></g><path d="m282.251 90.125-41.833 47.216H44.614L2.783 90.125l37.63-59.926h21.003l3.697-7.54h22.036l16.447 7.54 42.444.118 9.329-3.877 11.036 3.966 66.354-.207 14.998 5.012 34.494 54.914Z" fill="url(#e)"/><path d="M282.246 90.125 247.759 35.21l-15.003-5.01-66.349.203-11.036-3.966-9.334 3.877-42.444-.114-16.444-7.54H65.115l-3.697 7.54h-21L2.784 90.125H27.95l18.966 14.098h30.718l4.6-14.098h19.925l4.58-19.948h4.544l6.139-2.674-1.288 13.537 16.973 9.085h149.139Z" fill="#4A357D"/><path d="M16.11 82.758h21.438l3.685-7.068h-9.507l6.727-11.793 11.022-4.013 3.482-6.673-10.49 3.65 5.582-9.788-3.29-4.97h13.99l2.366-4.535H44.49l-28.38 45.19ZM69.71 30.026 57.264 55.42l15.09 8.956 5.921 3.06-8.96 4.866-6.325 16.48H52.84l10.855-25.09-8.109-4.849-15.329 31.274 9.092 6.74h22.94l11.366-34.855-15.532-8.549 8.36-19.325h7.474l5.085 2.138-7.193 3.358-4.91 12.804 8.37 4.498 7.65-23.465-7.428-3.435H69.71ZM97.687 37.568l-12.98 45.19h11.584l4.581-19.949h8.877l11.027-4.801 2.044-16.593-8.511-3.847H97.684h.003Zm14.884 9.635-1.779 9.848h-8.595l3.433-14.95h7.863l5.803 2.36-6.725 2.74v.002ZM127.668 37.568l-3.736 39.29 11.022 5.9h21.438l-2.849-41.342-9.248-3.848h-16.627Zm16.783 13.903.277 24.216h-9.507l1.262-33.587h7.864l6.042 2.36-5.936 7.011h-.002ZM159.881 41.433l4.486 41.324h11.583l-3.314-19.948h8.877l4.29 19.948h11.585l-5.197-19.065-6.818-2.887 5.268-2.797-5.572-20.44h-16.625l-8.563 3.865Zm20.396 15.618h-8.595l-1.626-9.796-6.707-2.792 5.849-2.36h7.864l3.215 14.95v-.002ZM189.366 42.103h7.743l13.816 40.654h11.586l-14.205-35.744-8.113-4.965h13.76l-1.992-4.48h-23.917l1.322 4.535ZM252.7 56.925l-9.774-15.561-11.368-3.796h-16.624l8.283 17.852 23.633 8.956 6.455 11.314h-9.509l-6.255-11.998-12.737-4.85 8.358 18.017 14.321 5.898h21.438l-13.036-20.756-23.685-8.548-3.318-6.366-8.722-4.984h13.985l5.889 10.325 12.666 4.497Z" fill="#fff"/><path d="M155.759 32.153a27.73 27.73 0 0 1-4.098 3.277 35.044 35.044 0 0 1 4.686 3.42 27.213 27.213 0 0 1 4.085-3.42 35.47 35.47 0 0 1-4.673-3.277Z" fill="#E2D45C"/><path d="m29.174 77.172 6.956-12.198c-2.58.294-5.138.596-7.673.91l-9.665 15.39h17.857l2.138-4.102h-9.613Z" fill="url(#f)"/><path d="M79.051 61.16c-2.763.181-5.508.374-8.236.58l2.258 1.339 7.422 3.833 1.369-4.204-2.813-1.547Zm-8.55 12.182-6.49 16.923H50.585l11.234-25.968-2.703-1.616c-1.315.113-2.627.23-3.932.35L42.134 89.66l7.705 5.713h21.374l8.881-27.238-9.593 5.207Z" fill="url(#g)"/><path d="m113.711 59.468-4.267 1.858h-9.75l-4.581 19.949h-8.435l6.008-20.92c6.914-.363 13.925-.66 21.025-.887Z" fill="url(#h)"/><path d="M154.803 81.275h-19.476l-9.826-5.257 1.609-16.9c2.409-.05 4.826-.09 7.253-.122l-.682 18.176h12.547L146.02 58.9a1013.916 1013.916 0 0 1 7.241.002l1.542 22.373Z" fill="url(#i)"/><path d="M195.448 81.275h-8.447l-4.29-19.949h-11.825l3.314 19.949h-8.504l-2.419-22.294c7.236.09 14.395.25 21.468.477l-2.82 1.498 9.025 3.82 4.498 16.499Z" fill="url(#j)"/><path d="M212.147 60.694c-2.417-.141-4.846-.275-7.288-.398l7.13 20.979h8.338l-8.18-20.581Z" fill="url(#k)"/><path d="M255.52 64.206a898.73 898.73 0 0 0-7.49-.754l7.829 13.72h-12.962l-6.41-12.294-8.163-3.109a40.063 40.063 0 0 0-.546-.04l6.487 13.98 13.51 5.566h18.466l-10.721-17.07Z" fill="url(#l)"/><path fill-rule="evenodd" clip-rule="evenodd" d="M118.122 116.011v-3.049l-8.424 3.133h-.018v3.129h.018l8.424 3.134v-3.055l-4.317-1.651 4.317-1.641ZM166.92 122.2v-3.05l4.315-1.641-4.315-1.641v-3.049l8.413 3.131h.019v3.131h-.019l-8.413 3.116v.003Zm-3.613-13.689-4.947 15.881h2.938l4.948-15.881h-2.939Z" fill="#996DFF"/><path fill-rule="evenodd" clip-rule="evenodd" d="M130.501 112.386a4.72 4.72 0 0 1 1.224 3.371v6.764h-2.939v-6.144a2.793 2.793 0 0 0-.613-1.89 2.038 2.038 0 0 0-1.636-.71c-1.838 0-2.76 1.276-2.76 3.828v4.918h-2.938v-11.106h2.938v1.004a4.732 4.732 0 0 1 3.497-1.335 4.214 4.214 0 0 1 3.225 1.3h.002ZM135.464 106.799v15.88h2.938v-15.88h-2.938ZM155.003 122.098h-2.451l-2.402-6.541-2.424 6.541h-2.447l-4.117-11.126h3.138l2.313 6.653 2.385-6.653h2.291l2.385 6.675 2.313-6.675h3.139l-4.123 11.126Z" fill="#fff"/><path d="M11.979 25.929c3.326-8.034 10.043-14.366 19.958-18.817C41.437 2.847 53.474.475 67.71.064 96.897-.778 132.129 6.69 166.913 21.1c2.5 1.035 4.979 2.098 7.431 3.188l-3.468.01a280.581 280.581 0 0 0-4.5-1.906C95.112-7.125 26.428-5.298 13.271 26.465c-3.81 9.198-2.553 19.911 2.889 31.21 13.342 27.722 51.862 58.962 102.494 79.933a315.565 315.565 0 0 0 14.696 5.664c29.702 10.607 59.039 15.982 83.929 15.263 14.055-.406 25.909-2.736 35.241-6.925 9.581-4.3 16.053-10.382 19.239-18.075 2.874-6.942 2.864-14.746.346-23.015l1.075-1.213c2.95 9.114 2.911 17.435-.126 24.765-3.329 8.034-10.044 14.365-19.961 18.816-9.499 4.265-21.534 6.638-35.771 7.048-1.488.042-2.991.064-4.508.064-25.091 0-54.235-5.849-83.556-16.728a314.346 314.346 0 0 1-11.141-4.372c-34.783-14.407-64.977-34.036-85.019-55.272-7.88-8.35-13.851-16.59-17.808-24.57a63.739 63.739 0 0 1-2.506-5.708C8.922 43.19 8.65 33.965 11.98 25.929Z" fill="url(#m)"/><path d="M11.979 25.929c3.326-8.034 10.043-14.366 19.958-18.817C41.437 2.847 53.474.475 67.71.064 96.897-.778 132.129 6.69 166.913 21.1c2.5 1.035 4.979 2.098 7.431 3.188l-3.468.01a280.581 280.581 0 0 0-4.5-1.906C95.112-7.125 26.428-5.298 13.271 26.465c-3.81 9.198-2.553 19.911 2.889 31.21 13.342 27.722 51.862 58.962 102.494 79.933a315.565 315.565 0 0 0 14.696 5.664c29.702 10.607 59.039 15.982 83.929 15.263 14.055-.406 25.909-2.736 35.241-6.925 9.581-4.3 16.053-10.382 19.239-18.075 2.874-6.942 2.864-14.746.346-23.015l1.075-1.213c2.95 9.114 2.911 17.435-.126 24.765-3.329 8.034-10.044 14.365-19.961 18.816-9.499 4.265-21.534 6.638-35.771 7.048-1.488.042-2.991.064-4.508.064-25.091 0-54.235-5.849-83.556-16.728a314.346 314.346 0 0 1-11.141-4.372c-34.783-14.407-64.977-34.036-85.019-55.272-7.88-8.35-13.851-16.59-17.808-24.57a63.739 63.739 0 0 1-2.506-5.708C8.922 43.19 8.65 33.965 11.98 25.929Z" fill="url(#n)"/><path d="M11.979 25.929c3.326-8.034 10.043-14.366 19.958-18.817C41.437 2.847 53.474.475 67.71.064 96.897-.778 132.129 6.69 166.913 21.1c2.5 1.035 4.979 2.098 7.431 3.188l-3.468.01a280.581 280.581 0 0 0-4.5-1.906C95.112-7.125 26.428-5.298 13.271 26.465c-3.81 9.198-2.553 19.911 2.889 31.21 13.342 27.722 51.862 58.962 102.494 79.933a315.565 315.565 0 0 0 14.696 5.664c29.702 10.607 59.039 15.982 83.929 15.263 14.055-.406 25.909-2.736 35.241-6.925 9.581-4.3 16.053-10.382 19.239-18.075 2.874-6.942 2.864-14.746.346-23.015l1.075-1.213c2.95 9.114 2.911 17.435-.126 24.765-3.329 8.034-10.044 14.365-19.961 18.816-9.499 4.265-21.534 6.638-35.771 7.048-1.488.042-2.991.064-4.508.064-25.091 0-54.235-5.849-83.556-16.728a314.346 314.346 0 0 1-11.141-4.372c-34.783-14.407-64.977-34.036-85.019-55.272-7.88-8.35-13.851-16.59-17.808-24.57a63.739 63.739 0 0 1-2.506-5.708C8.922 43.19 8.65 33.965 11.98 25.929Z" fill="url(#o)"/><path d="M11.979 25.929c3.326-8.034 10.043-14.366 19.958-18.817C41.437 2.847 53.474.475 67.71.064 96.897-.778 132.129 6.69 166.913 21.1c2.5 1.035 4.979 2.098 7.431 3.188l-3.468.01a280.581 280.581 0 0 0-4.5-1.906C95.112-7.125 26.428-5.298 13.271 26.465c-3.81 9.198-2.553 19.911 2.889 31.21 13.342 27.722 51.862 58.962 102.494 79.933a315.565 315.565 0 0 0 14.696 5.664c29.702 10.607 59.039 15.982 83.929 15.263 14.055-.406 25.909-2.736 35.241-6.925 9.581-4.3 16.053-10.382 19.239-18.075 2.874-6.942 2.864-14.746.346-23.015l1.075-1.213c2.95 9.114 2.911 17.435-.126 24.765-3.329 8.034-10.044 14.365-19.961 18.816-9.499 4.265-21.534 6.638-35.771 7.048-1.488.042-2.991.064-4.508.064-25.091 0-54.235-5.849-83.556-16.728a314.346 314.346 0 0 1-11.141-4.372c-34.783-14.407-64.977-34.036-85.019-55.272-7.88-8.35-13.851-16.59-17.808-24.57a63.739 63.739 0 0 1-2.506-5.708C8.922 43.19 8.65 33.965 11.98 25.929Z" fill="url(#p)"/><path d="M273.053 25.929c-3.326-8.034-10.043-14.366-19.958-18.817-9.499-4.265-21.537-6.637-35.774-7.048C188.136-.778 152.903 6.69 118.12 21.1a314.523 314.523 0 0 0-7.432 3.188l3.468.01c1.487-.645 2.987-1.28 4.5-1.906 71.264-29.517 139.948-27.69 153.105 4.073 3.811 9.198 2.553 19.911-2.889 31.21-13.342 27.722-51.862 58.962-102.493 79.933a316.033 316.033 0 0 1-14.697 5.664c-29.702 10.607-59.039 15.982-83.93 15.263-14.053-.406-25.908-2.736-35.24-6.925-9.58-4.3-16.053-10.382-19.239-18.075-2.874-6.942-2.864-14.746-.346-23.015l-1.075-1.213c-2.95 9.114-2.91 17.435.127 24.765 3.328 8.034 10.043 14.365 19.96 18.816 9.5 4.265 21.535 6.638 35.772 7.048 1.487.042 2.99.064 4.507.064 25.091 0 54.235-5.849 83.556-16.728a314.346 314.346 0 0 0 11.141-4.372c34.783-14.407 64.977-34.036 85.019-55.272 7.881-8.35 13.851-16.59 17.808-24.57a63.826 63.826 0 0 0 2.506-5.708c3.862-10.16 4.134-19.385.805-27.421Z" fill="url(#q)"/><path d="M273.053 25.929c-3.326-8.034-10.043-14.366-19.958-18.817-9.499-4.265-21.537-6.637-35.774-7.048C188.136-.778 152.903 6.69 118.12 21.1a314.523 314.523 0 0 0-7.432 3.188l3.468.01c1.487-.645 2.987-1.28 4.5-1.906 71.264-29.517 139.948-27.69 153.105 4.073 3.811 9.198 2.553 19.911-2.889 31.21-13.342 27.722-51.862 58.962-102.493 79.933a316.033 316.033 0 0 1-14.697 5.664c-29.702 10.607-59.039 15.982-83.93 15.263-14.053-.406-25.908-2.736-35.24-6.925-9.58-4.3-16.053-10.382-19.239-18.075-2.874-6.942-2.864-14.746-.346-23.015l-1.075-1.213c-2.95 9.114-2.91 17.435.127 24.765 3.328 8.034 10.043 14.365 19.96 18.816 9.5 4.265 21.535 6.638 35.772 7.048 1.487.042 2.99.064 4.507.064 25.091 0 54.235-5.849 83.556-16.728a314.346 314.346 0 0 0 11.141-4.372c34.783-14.407 64.977-34.036 85.019-55.272 7.881-8.35 13.851-16.59 17.808-24.57a63.826 63.826 0 0 0 2.506-5.708c3.862-10.16 4.134-19.385.805-27.421Z" fill="url(#r)"/><path d="M273.053 25.929c-3.326-8.034-10.043-14.366-19.958-18.817-9.499-4.265-21.537-6.637-35.774-7.048C188.136-.778 152.903 6.69 118.12 21.1a314.523 314.523 0 0 0-7.432 3.188l3.468.01c1.487-.645 2.987-1.28 4.5-1.906 71.264-29.517 139.948-27.69 153.105 4.073 3.811 9.198 2.553 19.911-2.889 31.21-13.342 27.722-51.862 58.962-102.493 79.933a316.033 316.033 0 0 1-14.697 5.664c-29.702 10.607-59.039 15.982-83.93 15.263-14.053-.406-25.908-2.736-35.24-6.925-9.58-4.3-16.053-10.382-19.239-18.075-2.874-6.942-2.864-14.746-.346-23.015l-1.075-1.213c-2.95 9.114-2.91 17.435.127 24.765 3.328 8.034 10.043 14.365 19.96 18.816 9.5 4.265 21.535 6.638 35.772 7.048 1.487.042 2.99.064 4.507.064 25.091 0 54.235-5.849 83.556-16.728a314.346 314.346 0 0 0 11.141-4.372c34.783-14.407 64.977-34.036 85.019-55.272 7.881-8.35 13.851-16.59 17.808-24.57a63.826 63.826 0 0 0 2.506-5.708c3.862-10.16 4.134-19.385.805-27.421Z" fill="url(#s)"/></g><defs><linearGradient id="b" x1="142.469" y1="74.756" x2="142.469" y2="135.549" gradientUnits="userSpaceOnUse"><stop stop-color="#D9D9D9"/><stop offset="1" stop-color="#D9D9D9" stop-opacity="0"/></linearGradient><linearGradient id="d" x1="0" y1="80" x2="285.034" y2="80" gradientUnits="userSpaceOnUse"><stop stop-color="#996DFF"/><stop offset=".5" stop-color="#35E8B3"/><stop offset="1" stop-color="#E2D45C"/></linearGradient><linearGradient id="e" x1="142.516" y1="91.912" x2="142.516" y2="136.167" gradientUnits="userSpaceOnUse"><stop stop-color="#28203E"/><stop offset="1" stop-color="#121214" stop-opacity="0"/></linearGradient><linearGradient id="f" x1="28.791" y1="61.015" x2="28.791" y2="78.455" gradientUnits="userSpaceOnUse"><stop stop-color="#A9A9AD"/><stop offset="1" stop-color="#A9A9AD" stop-opacity="0"/></linearGradient><linearGradient id="g" x1="62" y1="61.015" x2="62" y2="78.455" gradientUnits="userSpaceOnUse"><stop stop-color="#A9A9AD"/><stop offset="1" stop-color="#A9A9AD" stop-opacity="0"/></linearGradient><linearGradient id="h" x1="100.196" y1="61.015" x2="100.196" y2="78.455" gradientUnits="userSpaceOnUse"><stop stop-color="#A9A9AD"/><stop offset="1" stop-color="#A9A9AD" stop-opacity="0"/></linearGradient><linearGradient id="i" x1="140.153" y1="61.015" x2="140.153" y2="78.455" gradientUnits="userSpaceOnUse"><stop stop-color="#A9A9AD"/><stop offset="1" stop-color="#A9A9AD" stop-opacity="0"/></linearGradient><linearGradient id="j" x1="179.363" y1="61.015" x2="179.363" y2="78.455" gradientUnits="userSpaceOnUse"><stop stop-color="#A9A9AD"/><stop offset="1" stop-color="#A9A9AD" stop-opacity="0"/></linearGradient><linearGradient id="k" x1="212.594" y1="61.015" x2="212.594" y2="78.455" gradientUnits="userSpaceOnUse"><stop stop-color="#A9A9AD"/><stop offset="1" stop-color="#A9A9AD" stop-opacity="0"/></linearGradient><linearGradient id="l" x1="247.009" y1="61.015" x2="247.009" y2="78.455" gradientUnits="userSpaceOnUse"><stop stop-color="#A9A9AD"/><stop offset="1" stop-color="#A9A9AD" stop-opacity="0"/></linearGradient><linearGradient id="m" x1="258.619" y1="114.544" x2="66.107" y2="115.532" gradientUnits="userSpaceOnUse"><stop stop-color="#996DFF"/><stop offset=".5" stop-color="#35E8B3"/><stop offset="1" stop-color="#E2D45C"/></linearGradient><linearGradient id="q" x1="149.849" y1="17.727" x2="192.879" y2="126.818" gradientUnits="userSpaceOnUse"><stop stop-color="#996DFF"/><stop offset=".5" stop-color="#35E8B3"/><stop offset="1" stop-color="#E2D45C"/></linearGradient><radialGradient id="n" cx="0" cy="0" r="1" gradientUnits="userSpaceOnUse" gradientTransform="rotate(15.761 -457.784 581.568) scale(129.411 214.897)"><stop stop-color="#171226"/><stop offset="1" stop-color="#171226" stop-opacity="0"/></radialGradient><radialGradient id="o" cx="0" cy="0" r="1" gradientUnits="userSpaceOnUse" gradientTransform="rotate(-157.036 89.51 -5.166) scale(29.1264 48.3668)"><stop stop-color="#261945"/><stop offset="1" stop-color="#261945" stop-opacity="0"/></radialGradient><radialGradient id="p" cx="0" cy="0" r="1" gradientUnits="userSpaceOnUse" gradientTransform="rotate(76.729 68.984 226.381) scale(33.0025 54.8033)"><stop stop-color="#191326"/><stop offset="1" stop-color="#191326" stop-opacity="0"/></radialGradient><radialGradient id="r" cx="0" cy="0" r="1" gradientUnits="userSpaceOnUse" gradientTransform="rotate(-19.352 134.436 -303.083) scale(65.8413 109.335)"><stop stop-color="#171225"/><stop offset="1" stop-color="#171225" stop-opacity="0"/></radialGradient><radialGradient id="s" cx="0" cy="0" r="1" gradientUnits="userSpaceOnUse" gradientTransform="rotate(67.471 -75.467 63.356) scale(44.2891 73.5456)"><stop stop-color="#191327"/><stop offset="1" stop-color="#191327" stop-opacity="0"/></radialGradient><clipPath id="a"><path fill="#fff" d="M0 0h285.034v160H0z"/></clipPath></defs></svg>